<svg width="328" height="33" viewBox="0 0 328 33" fill="none" xmlns="http://www.w3.org/2000/svg">
<path d="M0.54 7.336H1.668C1.652 7.912 1.86 8.384 2.292 8.752C2.716 9.12 3.308 9.304 4.068 9.304C4.74 9.304 5.252 9.16 5.604 8.872C5.956 8.584 6.132 8.208 6.132 7.744C6.132 7.24 5.944 6.884 5.568 6.676C5.216 6.484 4.84 6.348 4.44 6.268C4.192 6.22 4.004 6.18 3.876 6.148C3.748 6.116 3.56 6.076 3.312 6.028L2.808 5.908C2.6 5.852 2.304 5.744 1.92 5.584C1.712 5.488 1.488 5.32 1.248 5.08C0.968 4.776 0.828 4.336 0.828 3.76C0.828 2.992 1.112 2.4 1.68 1.984C2.256 1.56 3.032 1.348 4.008 1.348C4.992 1.348 5.74 1.58 6.252 2.044C6.772 2.5 7.06 3.08 7.116 3.784H5.988C5.884 2.792 5.212 2.296 3.972 2.296C3.388 2.296 2.916 2.424 2.556 2.68C2.204 2.928 2.028 3.268 2.028 3.7C1.98 4.084 2.188 4.42 2.652 4.708C2.716 4.756 2.868 4.812 3.108 4.876L3.576 4.996C3.664 5.004 3.848 5.04 4.128 5.104C4.424 5.16 4.616 5.2 4.704 5.224L5.244 5.356C5.524 5.42 5.868 5.556 6.276 5.764C6.556 5.9 6.808 6.148 7.032 6.508C7.232 6.772 7.332 7.176 7.332 7.72C7.3 8.72 6.932 9.404 6.228 9.772C5.828 9.988 5.404 10.124 4.956 10.18C4.684 10.228 4.368 10.252 4.008 10.252C1.792 10.252 0.636 9.28 0.54 7.336ZM13.467 10L12.195 5.116L10.923 10H9.795L7.827 3.904H8.919L10.407 8.788L11.679 3.904H12.711L13.983 8.788L15.471 3.904H16.563L14.595 10H13.467ZM21.7677 8.236H22.7757C22.6797 8.772 22.4197 9.24 21.9957 9.64C21.5717 10.04 20.9437 10.24 20.1117 10.24C18.9837 10.24 18.1557 9.868 17.6277 9.124C17.3637 8.732 17.1917 8.312 17.1117 7.864C17.0557 7.552 17.0277 7.256 17.0277 6.976C17.0277 6.44 17.1077 5.936 17.2677 5.464C17.3717 5.128 17.5237 4.836 17.7237 4.588C17.9397 4.324 18.2477 4.104 18.6477 3.928C19.0477 3.752 19.4997 3.664 20.0037 3.664C20.8997 3.664 21.5757 3.912 22.0317 4.408C22.2237 4.616 22.3797 4.88 22.4997 5.2C22.6757 5.664 22.7837 6.228 22.8237 6.892C22.8237 6.916 22.8237 6.968 22.8237 7.048C22.8317 7.128 22.8357 7.176 22.8357 7.192H18.1437C18.1437 7.8 18.3037 8.336 18.6237 8.8C18.9437 9.264 19.4277 9.496 20.0757 9.496C20.5397 9.496 20.9197 9.38 21.2157 9.148C21.5117 8.916 21.6957 8.612 21.7677 8.236ZM18.1437 6.448H21.7197C21.7117 5.976 21.5997 5.54 21.3837 5.14C21.1357 4.652 20.6837 4.408 20.0277 4.408C19.2837 4.408 18.7717 4.656 18.4917 5.152C18.2597 5.552 18.1437 5.984 18.1437 6.448ZM28.6115 8.236H29.6195C29.5235 8.772 29.2635 9.24 28.8395 9.64C28.4155 10.04 27.7875 10.24 26.9555 10.24C25.8275 10.24 24.9995 9.868 24.4715 9.124C24.2075 8.732 24.0355 8.312 23.9555 7.864C23.8995 7.552 23.8715 7.256 23.8715 6.976C23.8715 6.44 23.9515 5.936 24.1115 5.464C24.2155 5.128 24.3675 4.836 24.5675 4.588C24.7835 4.324 25.0915 4.104 25.4915 3.928C25.8915 3.752 26.3435 3.664 26.8475 3.664C27.7435 3.664 28.4195 3.912 28.8755 4.408C29.0675 4.616 29.2235 4.88 29.3435 5.2C29.5195 5.664 29.6275 6.228 29.6675 6.892C29.6675 6.916 29.6675 6.968 29.6675 7.048C29.6755 7.128 29.6795 7.176 29.6795 7.192H24.9875C24.9875 7.8 25.1475 8.336 25.4675 8.8C25.7875 9.264 26.2715 9.496 26.9195 9.496C27.3835 9.496 27.7635 9.38 28.0595 9.148C28.3555 8.916 28.5395 8.612 28.6115 8.236ZM24.9875 6.448H28.5635C28.5555 5.976 28.4435 5.54 28.2275 5.14C27.9795 4.652 27.5275 4.408 26.8715 4.408C26.1275 4.408 25.6155 4.656 25.3355 5.152C25.1035 5.552 24.9875 5.984 24.9875 6.448ZM30.3552 4.648V3.904H31.4472V2.08H32.5032V3.904H33.7992V4.648H32.5032V8.524V8.584C32.4952 8.864 32.5232 9.06 32.5872 9.172C32.6592 9.276 32.8432 9.34 33.1392 9.364C33.3232 9.364 33.5432 9.328 33.7992 9.256V10C33.4152 10.16 33.0472 10.24 32.6952 10.24C32.2312 10.24 31.9032 10.128 31.7112 9.904C31.6392 9.832 31.5752 9.708 31.5192 9.532C31.4712 9.348 31.4472 9.084 31.4472 8.74V4.648H30.3552Z" fill="#100801"/>
<path d="M299.055 10V1.6H302.739C303.219 1.6 303.631 1.664 303.975 1.792C304.319 1.912 304.579 2.084 304.755 2.308C304.931 2.524 305.055 2.748 305.127 2.98C305.207 3.212 305.247 3.464 305.247 3.736C305.247 4.184 305.111 4.58 304.839 4.924C304.575 5.268 304.243 5.472 303.843 5.536V5.572C304.043 5.604 304.235 5.66 304.419 5.74C304.603 5.82 304.787 5.936 304.971 6.088C305.163 6.24 305.315 6.452 305.427 6.724C305.547 6.996 305.607 7.308 305.607 7.66C305.607 9.22 304.607 10 302.607 10H299.055ZM302.487 2.548H300.183V5.164H302.451C303.003 5.164 303.415 5.048 303.687 4.816C303.959 4.576 304.095 4.256 304.095 3.856C304.095 3.712 304.075 3.576 304.035 3.448C303.995 3.312 303.923 3.172 303.819 3.028C303.715 2.884 303.547 2.768 303.315 2.68C303.091 2.592 302.815 2.548 302.487 2.548ZM302.523 6.112H300.183V9.052H302.523C302.891 9.052 303.227 9.008 303.531 8.92C304.147 8.736 304.455 8.284 304.455 7.564C304.455 6.596 303.811 6.112 302.523 6.112ZM307.149 10V3.904H308.205V10H307.149ZM308.205 2.704H307.149V1.6H308.205V2.704ZM309.195 4.648V3.904H310.287V2.08H311.343V3.904H312.639V4.648H311.343V8.524V8.584C311.335 8.864 311.363 9.06 311.427 9.172C311.499 9.276 311.683 9.34 311.979 9.364C312.163 9.364 312.383 9.328 312.639 9.256V10C312.255 10.16 311.887 10.24 311.535 10.24C311.071 10.24 310.743 10.128 310.551 9.904C310.479 9.832 310.415 9.708 310.359 9.532C310.311 9.348 310.287 9.084 310.287 8.74V4.648H309.195ZM313.039 4.648V3.904H314.131V2.08H315.187V3.904H316.483V4.648H315.187V8.524V8.584C315.179 8.864 315.207 9.06 315.271 9.172C315.343 9.276 315.527 9.34 315.823 9.364C316.007 9.364 316.227 9.328 316.483 9.256V10C316.099 10.16 315.731 10.24 315.379 10.24C314.915 10.24 314.587 10.128 314.395 9.904C314.323 9.832 314.259 9.708 314.203 9.532C314.155 9.348 314.131 9.084 314.131 8.74V4.648H313.039ZM321.983 8.236H322.991C322.895 8.772 322.635 9.24 322.211 9.64C321.787 10.04 321.159 10.24 320.327 10.24C319.199 10.24 318.371 9.868 317.843 9.124C317.579 8.732 317.407 8.312 317.327 7.864C317.271 7.552 317.243 7.256 317.243 6.976C317.243 6.44 317.323 5.936 317.483 5.464C317.587 5.128 317.739 4.836 317.939 4.588C318.155 4.324 318.463 4.104 318.863 3.928C319.263 3.752 319.715 3.664 320.219 3.664C321.115 3.664 321.791 3.912 322.247 4.408C322.439 4.616 322.595 4.88 322.715 5.2C322.891 5.664 322.999 6.228 323.039 6.892C323.039 6.916 323.039 6.968 323.039 7.048C323.047 7.128 323.051 7.176 323.051 7.192H318.359C318.359 7.8 318.519 8.336 318.839 8.8C319.159 9.264 319.643 9.496 320.291 9.496C320.755 9.496 321.135 9.38 321.431 9.148C321.727 8.916 321.911 8.612 321.983 8.236ZM318.359 6.448H321.935C321.927 5.976 321.815 5.54 321.599 5.14C321.351 4.652 320.899 4.408 320.243 4.408C319.499 4.408 318.987 4.656 318.707 5.152C318.475 5.552 318.359 5.984 318.359 6.448ZM327.53 3.676L327.842 3.664V4.408C327.082 4.44 326.514 4.624 326.138 4.96C325.762 5.288 325.55 5.816 325.502 6.544C325.494 6.592 325.49 6.7 325.49 6.868V7.192V10H324.434V3.904H325.49V5.08H325.514C325.65 4.656 325.902 4.32 326.27 4.072C326.638 3.824 327.058 3.692 327.53 3.676Z" fill="#100801"/>
<rect x="131" y="24" width="197" height="1" fill="#2C2C2C"/>
<rect y="24" width="115" height="1" fill="#2C2C2C"/>
<circle cx="131.5" cy="24.5" r="8.5" fill="#2C2C2C"/>
</svg>
