<svg width="17" height="17" viewBox="0 0 17 17" fill="none" xmlns="http://www.w3.org/2000/svg">
<path d="M9.296 4.272C9.296 4.538 9.184 4.818 9.002 4.958C8.932 5 8.456 5.042 8.372 4.986C8.162 4.888 8.05 4.692 8.008 4.412C7.994 4.328 8.008 4.076 8.078 4.006C8.204 3.894 8.498 3.754 8.75 3.754C8.974 3.754 9.128 3.824 9.156 3.866C9.24 3.964 9.296 4.146 9.296 4.272ZM10.136 11.636C10.178 11.706 10.136 12 10.08 12.042C9.814 12.042 9.366 12 8.652 12C8.064 12 7.518 12.042 7.28 12.042C7.224 12 7.224 11.692 7.28 11.636C7.518 11.608 7.714 11.566 7.882 11.51C8.064 11.44 8.106 11.328 8.134 11.006C8.162 10.656 8.162 9.732 8.162 8.962C8.162 8.416 8.148 7.912 8.148 7.632C8.148 7.548 8.134 7.436 8.05 7.338C7.896 7.184 7.658 7.1 7.378 7.002C7.336 6.946 7.378 6.708 7.434 6.666C7.854 6.652 8.708 6.484 9.254 6.26C9.254 6.89 9.24 7.856 9.24 8.71C9.24 9.48 9.24 10.418 9.254 11.048C9.254 11.3 9.338 11.454 9.548 11.524C9.73 11.566 9.814 11.594 10.136 11.636Z" fill="#2C2C2C"/>
<circle cx="8.5" cy="8.5" r="8" stroke="#2C2C2C"/>
</svg>
