<svg width="213" height="37" viewBox="0 0 213 37" fill="none" xmlns="http://www.w3.org/2000/svg">
<path d="M0.72 9.448H2.224C2.20267 10.216 2.48 10.8453 3.056 11.336C3.62133 11.8267 4.41067 12.072 5.424 12.072C6.32 12.072 7.00267 11.88 7.472 11.496C7.94133 11.112 8.176 10.6107 8.176 9.992C8.176 9.32 7.92533 8.84533 7.424 8.568C6.95467 8.312 6.45333 8.13067 5.92 8.024C5.58933 7.96 5.33867 7.90667 5.168 7.864C4.99733 7.82133 4.74667 7.768 4.416 7.704L3.744 7.544C3.46667 7.46933 3.072 7.32533 2.56 7.112C2.28267 6.984 1.984 6.76 1.664 6.44C1.29067 6.03467 1.104 5.448 1.104 4.68C1.104 3.656 1.48267 2.86667 2.24 2.312C3.008 1.74667 4.04267 1.464 5.344 1.464C6.656 1.464 7.65333 1.77333 8.336 2.392C9.02933 3 9.41333 3.77333 9.488 4.712H7.984C7.84533 3.38933 6.94933 2.728 5.296 2.728C4.51733 2.728 3.888 2.89867 3.408 3.24C2.93867 3.57067 2.704 4.024 2.704 4.6C2.64 5.112 2.91733 5.56 3.536 5.944C3.62133 6.008 3.824 6.08267 4.144 6.168L4.768 6.328C4.88533 6.33867 5.13067 6.38667 5.504 6.472C5.89867 6.54667 6.15467 6.6 6.272 6.632L6.992 6.808C7.36533 6.89333 7.824 7.07467 8.368 7.352C8.74133 7.53333 9.07733 7.864 9.376 8.344C9.64267 8.696 9.776 9.23467 9.776 9.96C9.73333 11.2933 9.24267 12.2053 8.304 12.696C7.77067 12.984 7.20533 13.1653 6.608 13.24C6.24533 13.304 5.824 13.336 5.344 13.336C2.38933 13.336 0.848 12.04 0.72 9.448ZM17.956 13L16.26 6.488L14.564 13H13.06L10.436 4.872H11.892L13.876 11.384L15.572 4.872H16.948L18.644 11.384L20.628 4.872H22.084L19.46 13H17.956ZM29.0236 10.648H30.3676C30.2396 11.3627 29.893 11.9867 29.3276 12.52C28.7623 13.0533 27.925 13.32 26.8156 13.32C25.3116 13.32 24.2076 12.824 23.5036 11.832C23.1516 11.3093 22.9223 10.7493 22.8156 10.152C22.741 9.736 22.7036 9.34133 22.7036 8.968C22.7036 8.25333 22.8103 7.58133 23.0236 6.952C23.1623 6.504 23.365 6.11467 23.6316 5.784C23.9196 5.432 24.3303 5.13867 24.8636 4.904C25.397 4.66933 25.9996 4.552 26.6716 4.552C27.8663 4.552 28.7676 4.88267 29.3756 5.544C29.6316 5.82133 29.8396 6.17333 29.9996 6.6C30.2343 7.21867 30.3783 7.97067 30.4316 8.856C30.4316 8.888 30.4316 8.95733 30.4316 9.064C30.4423 9.17067 30.4476 9.23467 30.4476 9.256H24.1916C24.1916 10.0667 24.405 10.7813 24.8316 11.4C25.2583 12.0187 25.9036 12.328 26.7676 12.328C27.3863 12.328 27.893 12.1733 28.2876 11.864C28.6823 11.5547 28.9276 11.1493 29.0236 10.648ZM24.1916 8.264H28.9596C28.949 7.63467 28.7996 7.05333 28.5116 6.52C28.181 5.86933 27.5783 5.544 26.7036 5.544C25.7116 5.544 25.029 5.87467 24.6556 6.536C24.3463 7.06933 24.1916 7.64533 24.1916 8.264ZM38.1486 10.648H39.4926C39.3646 11.3627 39.018 11.9867 38.4526 12.52C37.8873 13.0533 37.05 13.32 35.9406 13.32C34.4366 13.32 33.3326 12.824 32.6286 11.832C32.2766 11.3093 32.0473 10.7493 31.9406 10.152C31.866 9.736 31.8286 9.34133 31.8286 8.968C31.8286 8.25333 31.9353 7.58133 32.1486 6.952C32.2873 6.504 32.49 6.11467 32.7566 5.784C33.0446 5.432 33.4553 5.13867 33.9886 4.904C34.522 4.66933 35.1246 4.552 35.7966 4.552C36.9913 4.552 37.8926 4.88267 38.5006 5.544C38.7566 5.82133 38.9646 6.17333 39.1246 6.6C39.3593 7.21867 39.5033 7.97067 39.5566 8.856C39.5566 8.888 39.5566 8.95733 39.5566 9.064C39.5673 9.17067 39.5726 9.23467 39.5726 9.256H33.3166C33.3166 10.0667 33.53 10.7813 33.9566 11.4C34.3833 12.0187 35.0286 12.328 35.8926 12.328C36.5113 12.328 37.018 12.1733 37.4126 11.864C37.8073 11.5547 38.0526 11.1493 38.1486 10.648ZM33.3166 8.264H38.0846C38.074 7.63467 37.9246 7.05333 37.6366 6.52C37.306 5.86933 36.7033 5.544 35.8286 5.544C34.8366 5.544 34.154 5.87467 33.7806 6.536C33.4713 7.06933 33.3166 7.64533 33.3166 8.264ZM40.4736 5.864V4.872H41.9296V2.44H43.3376V4.872H45.0656V5.864H43.3376V11.032V11.112C43.327 11.4853 43.3643 11.7467 43.4496 11.896C43.5456 12.0347 43.791 12.12 44.1856 12.152C44.431 12.152 44.7243 12.104 45.0656 12.008V13C44.5536 13.2133 44.063 13.32 43.5936 13.32C42.975 13.32 42.5376 13.1707 42.2816 12.872C42.1856 12.776 42.1003 12.6107 42.0256 12.376C41.9616 12.1307 41.9296 11.7787 41.9296 11.32V5.864H40.4736Z" fill="#100801"/>
<path d="M174.36 13V1.8H179.272C179.912 1.8 180.461 1.88533 180.92 2.056C181.379 2.216 181.725 2.44533 181.96 2.744C182.195 3.032 182.36 3.33067 182.456 3.64C182.563 3.94933 182.616 4.28533 182.616 4.648C182.616 5.24533 182.435 5.77333 182.072 6.232C181.72 6.69067 181.277 6.96267 180.744 7.048V7.096C181.011 7.13867 181.267 7.21333 181.512 7.32C181.757 7.42667 182.003 7.58133 182.248 7.784C182.504 7.98667 182.707 8.26933 182.856 8.632C183.016 8.99467 183.096 9.41067 183.096 9.88C183.096 11.96 181.763 13 179.096 13H174.36ZM178.936 3.064H175.864V6.552H178.888C179.624 6.552 180.173 6.39733 180.536 6.088C180.899 5.768 181.08 5.34133 181.08 4.808C181.08 4.616 181.053 4.43467 181 4.264C180.947 4.08267 180.851 3.896 180.712 3.704C180.573 3.512 180.349 3.35733 180.04 3.24C179.741 3.12267 179.373 3.064 178.936 3.064ZM178.984 7.816H175.864V11.736H178.984C179.475 11.736 179.923 11.6773 180.328 11.56C181.149 11.3147 181.56 10.712 181.56 9.752C181.56 8.46133 180.701 7.816 178.984 7.816ZM185.151 13V4.872H186.559V13H185.151ZM186.559 3.272H185.151V1.8H186.559V3.272ZM187.88 5.864V4.872H189.336V2.44H190.744V4.872H192.472V5.864H190.744V11.032V11.112C190.733 11.4853 190.771 11.7467 190.856 11.896C190.952 12.0347 191.197 12.12 191.592 12.152C191.837 12.152 192.131 12.104 192.472 12.008V13C191.96 13.2133 191.469 13.32 191 13.32C190.381 13.32 189.944 13.1707 189.688 12.872C189.592 12.776 189.507 12.6107 189.432 12.376C189.368 12.1307 189.336 11.7787 189.336 11.32V5.864H187.88ZM193.005 5.864V4.872H194.461V2.44H195.869V4.872H197.597V5.864H195.869V11.032V11.112C195.858 11.4853 195.896 11.7467 195.981 11.896C196.077 12.0347 196.322 12.12 196.717 12.152C196.962 12.152 197.256 12.104 197.597 12.008V13C197.085 13.2133 196.594 13.32 196.125 13.32C195.506 13.32 195.069 13.1707 194.813 12.872C194.717 12.776 194.632 12.6107 194.557 12.376C194.493 12.1307 194.461 11.7787 194.461 11.32V5.864H193.005ZM204.93 10.648H206.274C206.146 11.3627 205.799 11.9867 205.234 12.52C204.669 13.0533 203.831 13.32 202.722 13.32C201.218 13.32 200.114 12.824 199.41 11.832C199.058 11.3093 198.829 10.7493 198.722 10.152C198.647 9.736 198.61 9.34133 198.61 8.968C198.61 8.25333 198.717 7.58133 198.93 6.952C199.069 6.504 199.271 6.11467 199.538 5.784C199.826 5.432 200.237 5.13867 200.77 4.904C201.303 4.66933 201.906 4.552 202.578 4.552C203.773 4.552 204.674 4.88267 205.282 5.544C205.538 5.82133 205.746 6.17333 205.906 6.6C206.141 7.21867 206.285 7.97067 206.338 8.856C206.338 8.888 206.338 8.95733 206.338 9.064C206.349 9.17067 206.354 9.23467 206.354 9.256H200.098C200.098 10.0667 200.311 10.7813 200.738 11.4C201.165 12.0187 201.81 12.328 202.674 12.328C203.293 12.328 203.799 12.1733 204.194 11.864C204.589 11.5547 204.834 11.1493 204.93 10.648ZM200.098 8.264H204.866C204.855 7.63467 204.706 7.05333 204.418 6.52C204.087 5.86933 203.485 5.544 202.61 5.544C201.618 5.544 200.935 5.87467 200.562 6.536C200.253 7.06933 200.098 7.64533 200.098 8.264ZM212.327 4.568L212.743 4.552V5.544C211.73 5.58667 210.972 5.832 210.471 6.28C209.97 6.71733 209.687 7.42133 209.623 8.392C209.612 8.456 209.607 8.6 209.607 8.824V9.256V13H208.199V4.872H209.607V6.44H209.639C209.82 5.87467 210.156 5.42667 210.647 5.096C211.138 4.76533 211.698 4.58933 212.327 4.568Z" fill="#100801"/>
<rect x="143" y="28" width="70" height="1" fill="#2C2C2C"/>
<rect y="28" width="129" height="1" fill="#2C2C2C"/>
<circle cx="145.5" cy="28.5" r="8.5" fill="#2C2C2C"/>
</svg>
