<svg width="1081" height="124" viewBox="0 0 1081 124" fill="none" xmlns="http://www.w3.org/2000/svg">
<path d="M86.8696 80.1698H61.0242V59.1327H115.173V116.027H93.4986V99.9056C87.4655 111.834 75.995 117.979 58.4171 117.979C26.5384 117.979 5.68359 94.7729 5.68359 61.8075C5.68359 29.2036 29.1456 5.63623 62.4394 5.63623C89.7001 5.63623 110.704 20.8176 114.205 45.1079L86.6463 46.1923C84.4119 34.2641 74.8779 27.0348 62.2903 27.0348C44.4145 27.0348 33.3164 40.6258 33.3164 61.8075C33.3164 83.4953 43.9676 96.7971 62.2903 96.7971C74.2821 96.8694 83.8902 90.6522 86.8696 80.1698Z" fill="#F5F2F0"/>
<path d="M200.749 73.3632L227.86 116.088H198.067L175.127 78.496H156.059V116.088H129.617V7.79395H186.075C209.165 7.79395 224.657 22.3247 224.657 42.7835C224.657 57.0974 215.422 68.2305 200.749 73.3632ZM182.128 57.0974C191.066 57.0974 197.62 51.3863 197.62 43.145C197.62 34.759 191.066 28.9033 182.128 28.9033H156.059V57.0251H182.128V57.0974Z" fill="#F5F2F0"/>
<path d="M238.949 7.79395H322.146V30.2046H265.763V50.1574H317.752V71.8451H265.763V93.6774H322.966V116.088H238.949V7.79395Z" fill="#F5F2F0"/>
<path d="M335.172 7.79395H418.369V30.2046H361.986V50.1574H413.975V71.8451H361.986V93.6774H419.188V116.088H335.172V7.79395Z" fill="#F5F2F0"/>
<path d="M431.418 116.016V7.79395H458.157V50.808L499.272 7.79395H532.268L481.619 59.3385L532.938 116.088H499.346L458.232 71.0499V116.088H431.418V116.016Z" fill="#F5F2F0"/>
<path d="M1022.35 115.709H975.84V7.81641H1022.35C1053.57 7.81641 1075.82 30.0114 1075.82 61.7627C1075.82 93.3598 1053.57 115.709 1022.35 115.709ZM1001.8 94.4387H1020.81C1038.27 94.4387 1049.71 81.7999 1049.71 61.7627C1049.71 41.7255 1038.27 29.0867 1020.65 29.0867H1001.8V94.4387Z" fill="#F5F2F0"/>
<path d="M884.884 115.709H858.305L899.41 7.81641H930.316L971.266 115.709H943.296L936.033 94.747H892.456L884.884 115.709ZM900.182 72.8602H928.461L914.554 32.6317L900.182 72.8602Z" fill="#F5F2F0"/>
<path d="M777.008 115.709V7.81641H802.969V93.0515H854.582V115.709H777.008Z" fill="#F5F2F0"/>
<path d="M685.071 115.709H658.492L699.597 7.81641H730.503L771.453 115.709H743.484L736.221 94.747H692.643L685.071 115.709ZM700.37 72.8602H728.649L714.741 32.6317L700.37 72.8602Z" fill="#F5F2F0"/>
<path d="M588.622 80.4125C589.549 91.0476 597.893 97.3671 612.419 97.3671C624.782 97.3671 632.354 93.3596 632.354 86.1154C632.354 79.9501 628.027 77.1757 620.918 75.7885L597.43 71.3187C575.95 67.1571 564.824 56.9844 564.824 39.8757C564.824 19.6844 583.522 5.8125 610.41 5.8125C634.672 5.8125 653.988 16.91 657.696 39.4133L631.426 40.9547C629.727 31.5526 622 26.158 609.638 26.158C597.893 26.158 590.785 31.2443 590.785 37.7179C590.785 43.5749 594.648 46.1952 602.838 47.7365L625.709 52.2063C647.652 56.522 658.16 67.1571 658.16 83.4952C658.16 103.841 641.007 117.713 611.647 117.713C584.449 117.713 565.751 105.228 562.352 81.7997L588.622 80.4125Z" fill="#F5F2F0"/>
</svg>
