<svg width="1081" height="124" viewBox="0 0 1081 124" fill="none" xmlns="http://www.w3.org/2000/svg">
<path d="M86.8696 80.1699H61.0242V59.1327H115.173V116.027H93.4986V99.9057C87.4655 111.834 75.995 117.979 58.4171 117.979C26.5384 117.979 5.68359 94.773 5.68359 61.8076C5.68359 29.2037 29.1456 5.63628 62.4394 5.63628C89.7001 5.63628 110.704 20.8177 114.205 45.108L86.6463 46.1924C84.4119 34.2641 74.8779 27.0349 62.2903 27.0349C44.4145 27.0349 33.3164 40.6259 33.3164 61.8076C33.3164 83.4953 43.9676 96.7971 62.2903 96.7971C74.2821 96.8694 83.8902 90.6523 86.8696 80.1699Z" fill="#2C2C2C"/>
<path d="M200.749 73.3633L227.86 116.088H198.067L175.127 78.496H156.059V116.088H129.617V7.79398H186.075C209.165 7.79398 224.657 22.3247 224.657 42.7835C224.657 57.0974 215.422 68.2305 200.749 73.3633ZM182.128 57.0975C191.066 57.0975 197.62 51.3863 197.62 43.145C197.62 34.7591 191.066 28.9034 182.128 28.9034H156.059V57.0252H182.128V57.0975Z" fill="#2C2C2C"/>
<path d="M238.949 7.79398H322.146V30.2046H265.763V50.1574H317.752V71.8451H265.763V93.6774H322.966V116.088H238.949V7.79398Z" fill="#2C2C2C"/>
<path d="M335.172 7.79398H418.369V30.2046H361.986V50.1574H413.975V71.8451H361.986V93.6774H419.188V116.088H335.172V7.79398Z" fill="#2C2C2C"/>
<path d="M431.418 116.016V7.79398H458.157V50.808L499.272 7.79398H532.268L481.619 59.3385L532.938 116.088H499.346L458.232 71.0499V116.088H431.418V116.016Z" fill="#2C2C2C"/>
<path d="M1022.35 115.709H975.84V7.81629H1022.35C1053.57 7.81629 1075.82 30.0113 1075.82 61.7626C1075.82 93.3597 1053.57 115.709 1022.35 115.709ZM1001.8 94.4386H1020.81C1038.27 94.4386 1049.71 81.7998 1049.71 61.7626C1049.71 41.7254 1038.27 29.0865 1020.65 29.0865H1001.8V94.4386Z" fill="#2C2C2C"/>
<path d="M884.884 115.709H858.305L899.41 7.81629H930.316L971.266 115.709H943.296L936.033 94.7469H892.456L884.884 115.709ZM900.182 72.8601H928.461L914.554 32.6316L900.182 72.8601Z" fill="#2C2C2C"/>
<path d="M777.008 115.709V7.81629H802.969V93.0514H854.582V115.709H777.008Z" fill="#2C2C2C"/>
<path d="M685.071 115.709H658.492L699.597 7.81629H730.503L771.453 115.709H743.484L736.221 94.7469H692.643L685.071 115.709ZM700.37 72.8601H728.649L714.741 32.6316L700.37 72.8601Z" fill="#2C2C2C"/>
<path d="M588.622 80.4126C589.549 91.0477 597.893 97.3671 612.419 97.3671C624.782 97.3671 632.354 93.3597 632.354 86.1155C632.354 79.9502 628.027 77.1758 620.918 75.7886L597.43 71.3188C575.95 67.1572 564.824 56.9845 564.824 39.8758C564.824 19.6845 583.522 5.81257 610.41 5.81257C634.672 5.81257 653.988 16.9101 657.696 39.4134L631.426 40.9547C629.727 31.5527 622 26.158 609.638 26.158C597.893 26.158 590.785 31.2444 590.785 37.7179C590.785 43.575 594.648 46.1952 602.838 47.7365L625.709 52.2064C647.652 56.5221 658.16 67.1572 658.16 83.4952C658.16 103.841 641.007 117.713 611.647 117.713C584.449 117.713 565.751 105.228 562.352 81.7998L588.622 80.4126Z" fill="#2C2C2C"/>
</svg>
